<svg width="176" height="46" viewBox="0 0 176 46" fill="none" xmlns="http://www.w3.org/2000/svg">
<path d="M67.2563 15.6874V36.1953H62.0806V19.789H54.6392V36.1953H49.4634V14.6913C49.4634 9.46999 52.5363 6.85931 58.6821 6.85931C60.8826 6.85931 63.0897 7.31504 65.3032 8.2265V12.3281C63.298 11.4166 61.2147 10.9609 59.0532 10.9609C56.1105 10.9609 54.6392 12.1523 54.6392 14.5351V15.6874H67.2563ZM77.3345 8.26556V36.1953H72.1587V8.26556H77.3345ZM81.2603 29.8085C81.2603 25.733 84.229 23.6953 90.1665 23.6953C91.5597 23.6953 92.953 23.8255 94.3462 24.0859V22.5429C94.3462 20.707 93.0246 19.789 90.3813 19.789C88.1418 19.789 85.6548 20.1145 82.9204 20.7656V16.664C85.6548 16.013 88.1418 15.6874 90.3813 15.6874C96.4751 15.6874 99.522 17.94 99.522 22.4453V36.1953H96.5142L94.6782 34.3593C92.8944 35.5833 90.9282 36.1953 88.7798 36.1953C83.7668 36.1953 81.2603 34.0663 81.2603 29.8085ZM94.3462 27.6015C93.0441 27.3411 91.6509 27.2109 90.1665 27.2109C87.6795 27.2109 86.436 28.0572 86.436 29.7499C86.436 31.5729 87.4777 32.4843 89.561 32.4843C91.2798 32.4843 92.8748 31.9505 94.3462 30.8828V27.6015ZM104.424 36.1953V15.6874H108.428L109.034 18.6562C110.87 16.677 113.077 15.6874 115.655 15.6874C118.233 15.6874 119.997 16.6249 120.948 18.4999C123.044 16.6249 125.238 15.6874 127.53 15.6874C132.243 15.6874 134.6 18.2851 134.6 23.4804V36.1953H129.424V23.2851C129.424 21.0064 128.396 19.8671 126.338 19.8671C124.802 19.8671 123.324 20.5572 121.905 21.9374V36.1953H116.729V23.3437C116.729 21.026 115.778 19.8671 113.877 19.8671C112.367 19.8671 110.941 20.5572 109.6 21.9374V36.1953H104.424ZM144.678 8.26556V12.3671H139.502V8.26556H144.678ZM144.678 15.6874V36.1953H139.502V15.6874H144.678ZM164.717 35.6093C163.025 35.9999 161.267 36.1953 159.444 36.1953C152.152 36.1953 148.506 32.6471 148.506 25.5507C148.506 18.9752 152.152 15.6874 159.444 15.6874C161.267 15.6874 163.025 15.8828 164.717 16.2734V20.3749C163.025 19.9843 161.397 19.789 159.834 19.789C155.733 19.789 153.682 21.7096 153.682 25.5507C153.682 29.9127 155.733 32.0937 159.834 32.0937C161.397 32.0937 163.025 31.8984 164.717 31.5078V35.6093ZM172.823 31.4101V36.1953H167.647V31.4101H172.823Z" fill="url(#paint0_linear_70_99)"/>
<path d="M13.7207 34.5428V0.00224917C19.0775 -0.134567 37.4113 6.00394 25.882 9.25614C14.3527 12.5083 40.0011 24.9769 33.8561 25.0049L13.7207 34.5428Z" fill="url(#paint1_linear_70_99)"/>
<path d="M13.7253 43.4718L0 35.4826L13.7297 27.4933L27.4417 34.4836L13.7253 43.4718Z" fill="url(#paint2_linear_70_99)"/>
<path d="M13.7246 43.4719V1.9581C19.0815 1.82129 14.3051 2.09494 19.662 1.95812L27.4417 34.4854L13.7246 43.4719Z" fill="url(#paint3_linear_70_99)"/>
<defs>
<linearGradient id="paint0_linear_70_99" x1="47.022" y1="45.1952" x2="167.842" y2="45.1953" gradientUnits="userSpaceOnUse">
<stop stop-color="#E65C00"/>
<stop offset="1" stop-color="#F9D423"/>
</linearGradient>
<linearGradient id="paint1_linear_70_99" x1="20.5734" y1="10.6726" x2="20.5734" y2="34.544" gradientUnits="userSpaceOnUse">
<stop stop-color="#F9D423"/>
<stop offset="1" stop-color="#E65C00" stop-opacity="0.74"/>
</linearGradient>
<linearGradient id="paint2_linear_70_99" x1="13.7563" y1="27.4846" x2="13.7563" y2="43.4717" gradientUnits="userSpaceOnUse">
<stop stop-color="#E65C00"/>
<stop offset="1" stop-color="#F9D423"/>
</linearGradient>
<linearGradient id="paint3_linear_70_99" x1="20.5773" y1="19.6003" x2="20.5773" y2="43.4718" gradientUnits="userSpaceOnUse">
<stop stop-color="#F9D423"/>
<stop offset="1" stop-color="#E65C00" stop-opacity="0.74"/>
</linearGradient>
</defs>
</svg>
