<svg width="2117" height="573" viewBox="0 0 2117 573" fill="none" xmlns="http://www.w3.org/2000/svg">
<path d="M150.124 426.625V48.7023C208.736 47.2053 409.333 114.369 283.186 149.953C157.039 185.537 437.669 321.961 370.434 322.267L150.124 426.625Z" fill="url(#paint0_linear_133_16)"/>
<path d="M150.175 524.321L0 436.908L150.223 349.494L300.252 425.978L150.175 524.321Z" fill="url(#paint1_linear_133_16)"/>
<path d="M150.167 524.322V70.1018C208.779 68.6048 156.519 71.599 215.13 70.102L300.251 425.997L150.167 524.322Z" fill="url(#paint2_linear_133_16)"/>
<path d="M739.999 201.5V464H673.749V254H578.499V464H512.249V188.75C512.249 121.917 551.582 88.5 630.249 88.5C658.415 88.5 686.665 94.3333 714.999 106V158.5C689.332 146.833 662.665 141 634.999 141C597.332 141 578.499 156.25 578.499 186.75V201.5H739.999ZM868.999 106.5V464H802.749V106.5H868.999ZM919.249 382.25C919.249 330.083 957.249 304 1033.25 304C1051.08 304 1068.92 305.667 1086.75 309V289.25C1086.75 265.75 1069.83 254 1036 254C1007.33 254 975.499 258.167 940.499 266.5V214C975.499 205.667 1007.33 201.5 1036 201.5C1114 201.5 1153 230.333 1153 288V464H1114.5L1091 440.5C1068.17 456.167 1043 464 1015.5 464C951.332 464 919.249 436.75 919.249 382.25ZM1086.75 354C1070.08 350.667 1052.25 349 1033.25 349C1001.42 349 985.499 359.833 985.499 381.5C985.499 404.833 998.832 416.5 1025.5 416.5C1047.5 416.5 1067.92 409.667 1086.75 396V354ZM1215.75 464V201.5H1267L1274.75 239.5C1298.25 214.167 1326.5 201.5 1359.5 201.5C1392.5 201.5 1415.08 213.5 1427.25 237.5C1454.08 213.5 1482.17 201.5 1511.5 201.5C1571.83 201.5 1602 234.75 1602 301.25V464H1535.75V298.75C1535.75 269.583 1522.58 255 1496.25 255C1476.58 255 1457.67 263.833 1439.5 281.5V464H1373.25V299.5C1373.25 269.833 1361.08 255 1336.75 255C1317.42 255 1299.17 263.833 1282 281.5V464H1215.75ZM1731 106.5V159H1664.75V106.5H1731ZM1731 201.5V464H1664.75V201.5H1731ZM1987.5 456.5C1965.83 461.5 1943.33 464 1920 464C1826.67 464 1780 418.583 1780 327.75C1780 243.583 1826.67 201.5 1920 201.5C1943.33 201.5 1965.83 204 1987.5 209V261.5C1965.83 256.5 1945 254 1925 254C1872.5 254 1846.25 278.583 1846.25 327.75C1846.25 383.583 1872.5 411.5 1925 411.5C1945 411.5 1965.83 409 1987.5 404V456.5ZM2091.25 402.75V464H2025V402.75H2091.25Z" fill="url(#paint3_linear_133_16)"/>
<defs>
<linearGradient id="paint0_linear_133_16" x1="225.103" y1="165.451" x2="225.103" y2="426.639" gradientUnits="userSpaceOnUse">
<stop stop-color="#F9D423"/>
<stop offset="1" stop-color="#E65C00" stop-opacity="0.74"/>
</linearGradient>
<linearGradient id="paint1_linear_133_16" x1="150.514" y1="349.399" x2="150.514" y2="524.321" gradientUnits="userSpaceOnUse">
<stop stop-color="#E65C00"/>
<stop offset="1" stop-color="#F9D423"/>
</linearGradient>
<linearGradient id="paint2_linear_133_16" x1="225.146" y1="263.133" x2="225.146" y2="524.321" gradientUnits="userSpaceOnUse">
<stop stop-color="#F9D423"/>
<stop offset="1" stop-color="#E65C00" stop-opacity="0.74"/>
</linearGradient>
<linearGradient id="paint3_linear_133_16" x1="480.999" y1="573" x2="2025.23" y2="573" gradientUnits="userSpaceOnUse">
<stop stop-color="#E65C00"/>
<stop offset="1" stop-color="#F9D423"/>
</linearGradient>
</defs>
</svg>
